<svg class="main-svg" xmlns="http://www.w3.org/2000/svg" xmlns:xlink="http://www.w3.org/1999/xlink" width="800" height="500" style="" viewBox="0 0 800 500"><rect x="0" y="0" width="800" height="500" style="fill: rgb(255, 255, 255); fill-opacity: 1;"/><defs id="defs-7bed55"><g class="clips"><clipPath id="clip7bed55xyplot" class="plotclip"><rect width="519" height="320"/></clipPath><clipPath class="axesclip" id="clip7bed55x"><rect x="80" y="0" width="519" height="500"/></clipPath><clipPath class="axesclip" id="clip7bed55y"><rect x="0" y="100" width="800" height="320"/></clipPath><clipPath class="axesclip" id="clip7bed55xy"><rect x="80" y="100" width="519" height="320"/></clipPath></g><g class="gradients"/><g class="patterns"/></defs><g class="bglayer"/><g class="layer-below"><g class="imagelayer"/><g class="shapelayer"/></g><g class="cartesianlayer"><g class="subplot xy"><g class="layer-subplot"><g class="shapelayer"/><g class="imagelayer"/></g><g class="minor-gridlayer"><g class="x"/><g class="y"/></g><g class="gridlayer"><g class="x"><path class="xgrid crisp" transform="translate(183.8,0)" d="M0,100v320" style="stroke: rgb(189, 195, 199); stroke-opacity: 0.75; stroke-width: 1px;"/><path class="xgrid crisp" transform="translate(287.6,0)" d="M0,100v320" style="stroke: rgb(189, 195, 199); stroke-opacity: 0.75; stroke-width: 1px;"/><path class="xgrid crisp" transform="translate(391.4,0)" d="M0,100v320" style="stroke: rgb(189, 195, 199); stroke-opacity: 0.75; stroke-width: 1px;"/><path class="xgrid crisp" transform="translate(495.2,0)" d="M0,100v320" style="stroke: rgb(189, 195, 199); stroke-opacity: 0.75; stroke-width: 1px;"/></g><g class="y"><path class="ygrid crisp" transform="translate(0,402.58)" d="M80,0h519" style="stroke: rgb(189, 195, 199); stroke-opacity: 0.75; stroke-width: 1px;"/><path class="ygrid crisp" transform="translate(0,364.16)" d="M80,0h519" style="stroke: rgb(189, 195, 199); stroke-opacity: 0.75; stroke-width: 1px;"/><path class="ygrid crisp" transform="translate(0,325.74)" d="M80,0h519" style="stroke: rgb(189, 195, 199); stroke-opacity: 0.75; stroke-width: 1px;"/><path class="ygrid crisp" transform="translate(0,287.33000000000004)" d="M80,0h519" style="stroke: rgb(189, 195, 199); stroke-opacity: 0.75; stroke-width: 1px;"/><path class="ygrid crisp" transform="translate(0,248.91)" d="M80,0h519" style="stroke: rgb(189, 195, 199); stroke-opacity: 0.75; stroke-width: 1px;"/><path class="ygrid crisp" transform="translate(0,172.07999999999998)" d="M80,0h519" style="stroke: rgb(189, 195, 199); stroke-opacity: 0.75; stroke-width: 1px;"/><path class="ygrid crisp" transform="translate(0,133.66)" d="M80,0h519" style="stroke: rgb(189, 195, 199); stroke-opacity: 0.75; stroke-width: 1px;"/></g></g><g class="zerolinelayer"><path class="xzl zl crisp" transform="translate(80,0)" d="M0,100v320" style="stroke: rgb(189, 195, 199); stroke-opacity: 1; stroke-width: 1px;"/><path class="yzl zl crisp" transform="translate(0,210.5)" d="M80,0h519" style="stroke: rgb(189, 195, 199); stroke-opacity: 1; stroke-width: 1px;"/></g><path class="xlines-below"/><path class="ylines-below"/><g class="overlines-below"/><g class="xaxislayer-below"/><g class="yaxislayer-below"/><g class="overaxes-below"/><g class="plot" transform="translate(80,100)" clip-path="url(#clip7bed55xyplot)"><g class="scatterlayer mlayer"><g class="trace scatter trace62b704" style="stroke-miterlimit: 2; opacity: 1;"><g class="fills"/><g class="errorbars"/><g class="lines"><path class="js-line" d="M0,174.15L10.38,226.76L20.76,207.83L31.14,189.43L41.52,126.32L51.9,199.03L62.28,160.39L72.66,300.95L83.04,178.78L93.42,149.92L103.8,264.06L114.18,216.47L124.56,215.94L134.94,128.34L145.32,179.3L155.7,73.13L166.08,227.45L176.46,130.28L186.84,175.08L197.22,122.08L207.6,144.6L217.98,144.49L228.36,154.78L238.74,60.56L249.12,76.74L259.5,81.39L269.88,80.74L280.26,219.67L290.64,101.1L301.02,196.78L311.4,190.85L321.78,214.77L332.16,137.64L342.54,163.24L352.92,92.65L363.3,209.72L373.68,226.15L384.06,178.24L394.44,141.12L404.82,153.37L415.2,125.8L425.58,183.91L435.96,169.78L446.34,56.5L456.72,192.21L467.1,102.3L477.48,91.86L487.86,155.17L498.24,175.66L508.62,110.84L519,77.62" style="vector-effect: non-scaling-stroke; fill: none; stroke: rgb(230, 126, 34); stroke-opacity: 1; stroke-width: 2px; opacity: 1;"/></g><g class="points"/><g class="text"/></g><g class="trace scatter trace876756" style="stroke-miterlimit: 2; opacity: 1;"><g class="fills"/><g class="errorbars"/><g class="lines"><path class="js-line" d="M0,157.96L519,157.96" style="vector-effect: non-scaling-stroke; fill: none; stroke: rgb(230, 126, 34); stroke-opacity: 0.5; stroke-width: 2px; opacity: 1; stroke-dasharray: 3px, 3px;"/></g><g class="points"/><g class="text"/></g><g class="trace scatter tracedb7eaa" style="stroke-miterlimit: 2; opacity: 1;"><g class="fills"/><g class="errorbars"/><g class="lines"><path class="js-line" d="M0,63.72L10.38,86.04L20.76,61.07L31.14,47.71L41.52,46.22L51.9,97.79L62.28,90.88L72.66,52.84L83.04,47.6L93.42,64.26L103.8,51.11L114.18,68.4L124.56,49.92L134.94,35.64L145.32,84.62L155.7,50.04L166.08,101.48L176.46,69.38L186.84,69.99L197.22,68.41L207.6,45.58L217.98,63.82L228.36,39.02L238.74,52.94L249.12,48.38L259.5,42.5L269.88,33.94L280.26,38.32L290.64,61.53L301.02,38.55L311.4,50.69L321.78,44.61L332.16,49.38L342.54,45.52L352.92,54.58L363.3,51.78L373.68,55.92L384.06,59.85L394.44,62.72L404.82,42.25L415.2,56.31L425.58,32.7L435.96,36.22L446.34,40.98L456.72,20.3L467.1,34.05L477.48,44.11L487.86,42.7L498.24,48.8L508.62,58.88L519,49.39" style="vector-effect: non-scaling-stroke; fill: none; stroke: rgb(52, 152, 219); stroke-opacity: 1; stroke-width: 2px; opacity: 1;"/></g><g class="points"/><g class="text"/></g><g class="trace scatter trace6c5ae3" style="stroke-miterlimit: 2; opacity: 1;"><g class="fills"/><g class="errorbars"/><g class="lines"><path class="js-line" d="M0,53.99L519,53.99" style="vector-effect: non-scaling-stroke; fill: none; stroke: rgb(52, 152, 219); stroke-opacity: 0.5; stroke-width: 2px; opacity: 1; stroke-dasharray: 3px, 3px;"/></g><g class="points"/><g class="text"/></g></g></g><g class="overplot"/><path class="xlines-above crisp" d="M0,0" style="fill: none;"/><path class="ylines-above crisp" d="M0,0" style="fill: none;"/><g class="overlines-above"/><g class="xaxislayer-above"><g class="xtick"><text text-anchor="middle" x="0" y="433" transform="translate(80,0)" style="font-family: 'Open Sans', verdana, arial, sans-serif; font-size: 12px; fill: rgb(44, 62, 80); fill-opacity: 1; white-space: pre; opacity: 1;">0</text></g><g class="xtick"><text text-anchor="middle" x="0" y="433" style="font-family: 'Open Sans', verdana, arial, sans-serif; font-size: 12px; fill: rgb(44, 62, 80); fill-opacity: 1; white-space: pre; opacity: 1;" transform="translate(183.8,0)">10</text></g><g class="xtick"><text text-anchor="middle" x="0" y="433" style="font-family: 'Open Sans', verdana, arial, sans-serif; font-size: 12px; fill: rgb(44, 62, 80); fill-opacity: 1; white-space: pre; opacity: 1;" transform="translate(287.6,0)">20</text></g><g class="xtick"><text text-anchor="middle" x="0" y="433" style="font-family: 'Open Sans', verdana, arial, sans-serif; font-size: 12px; fill: rgb(44, 62, 80); fill-opacity: 1; white-space: pre; opacity: 1;" transform="translate(391.4,0)">30</text></g><g class="xtick"><text text-anchor="middle" x="0" y="433" style="font-family: 'Open Sans', verdana, arial, sans-serif; font-size: 12px; fill: rgb(44, 62, 80); fill-opacity: 1; white-space: pre; opacity: 1;" transform="translate(495.2,0)">40</text></g><g class="xtick"><text text-anchor="middle" x="0" y="433" style="font-family: 'Open Sans', verdana, arial, sans-serif; font-size: 12px; fill: rgb(44, 62, 80); fill-opacity: 1; white-space: pre; opacity: 1;" transform="translate(599,0)">50</text></g></g><g class="yaxislayer-above"><g class="ytick"><text text-anchor="end" x="79" y="4.199999999999999" transform="translate(0,402.58)" style="font-family: 'Open Sans', verdana, arial, sans-serif; font-size: 12px; fill: rgb(44, 62, 80); fill-opacity: 1; white-space: pre; opacity: 1;">−10%</text></g><g class="ytick"><text text-anchor="end" x="79" y="4.199999999999999" style="font-family: 'Open Sans', verdana, arial, sans-serif; font-size: 12px; fill: rgb(44, 62, 80); fill-opacity: 1; white-space: pre; opacity: 1;" transform="translate(0,364.16)">−8%</text></g><g class="ytick"><text text-anchor="end" x="79" y="4.199999999999999" style="font-family: 'Open Sans', verdana, arial, sans-serif; font-size: 12px; fill: rgb(44, 62, 80); fill-opacity: 1; white-space: pre; opacity: 1;" transform="translate(0,325.74)">−6%</text></g><g class="ytick"><text text-anchor="end" x="79" y="4.199999999999999" style="font-family: 'Open Sans', verdana, arial, sans-serif; font-size: 12px; fill: rgb(44, 62, 80); fill-opacity: 1; white-space: pre; opacity: 1;" transform="translate(0,287.33000000000004)">−4%</text></g><g class="ytick"><text text-anchor="end" x="79" y="4.199999999999999" style="font-family: 'Open Sans', verdana, arial, sans-serif; font-size: 12px; fill: rgb(44, 62, 80); fill-opacity: 1; white-space: pre; opacity: 1;" transform="translate(0,248.91)">−2%</text></g><g class="ytick"><text text-anchor="end" x="79" y="4.199999999999999" style="font-family: 'Open Sans', verdana, arial, sans-serif; font-size: 12px; fill: rgb(44, 62, 80); fill-opacity: 1; white-space: pre; opacity: 1;" transform="translate(0,210.5)">0%</text></g><g class="ytick"><text text-anchor="end" x="79" y="4.199999999999999" style="font-family: 'Open Sans', verdana, arial, sans-serif; font-size: 12px; fill: rgb(44, 62, 80); fill-opacity: 1; white-space: pre; opacity: 1;" transform="translate(0,172.07999999999998)">2%</text></g><g class="ytick"><text text-anchor="end" x="79" y="4.199999999999999" style="font-family: 'Open Sans', verdana, arial, sans-serif; font-size: 12px; fill: rgb(44, 62, 80); fill-opacity: 1; white-space: pre; opacity: 1;" transform="translate(0,133.66)">4%</text></g></g><g class="overaxes-above"/></g></g><g class="polarlayer"/><g class="smithlayer"/><g class="ternarylayer"/><g class="geolayer"/><g class="funnelarealayer"/><g class="pielayer"/><g class="iciclelayer"/><g class="treemaplayer"/><g class="sunburstlayer"/><g class="glimages"/><defs id="topdefs-7bed55"><g class="clips"/><clipPath id="legend7bed55"><rect width="179" height="86" x="0" y="0"/></clipPath></defs><g class="layer-above"><g class="imagelayer"/><g class="shapelayer"/></g><g class="infolayer"><g class="legend" pointer-events="all" transform="translate(609.38,100)"><rect class="bg" shape-rendering="crispEdges" width="179" height="86" x="0" y="0" style="stroke: rgb(68, 68, 68); stroke-opacity: 1; fill: rgb(255, 255, 255); fill-opacity: 1; stroke-width: 0px;"/><g class="scrollbox" transform="" clip-path="url(#legend7bed55)"><g class="groups"><g class="traces" transform="translate(0,14.5)" style="opacity: 1;"><text class="legendtext" text-anchor="start" x="40" y="4.680000000000001" style="font-family: 'Open Sans', verdana, arial, sans-serif; font-size: 12px; fill: rgb(42, 63, 95); fill-opacity: 1; white-space: pre;">HiveNAS</text><g class="layers" style="opacity: 1;"><g class="legendfill"/><g class="legendlines"><path class="js-line" d="M5,0h30" style="fill: none; stroke: rgb(230, 126, 34); stroke-opacity: 1; stroke-width: 2px;"/></g><g class="legendsymbols"><g class="legendpoints"/></g></g><rect class="legendtoggle" x="0" y="-9.5" width="173.78125" height="19" style="fill: rgb(0, 0, 0); fill-opacity: 0;"/></g><g class="traces" transform="translate(0,33.5)" style="opacity: 1;"><text class="legendtext" text-anchor="start" x="40" y="4.680000000000001" style="font-family: 'Open Sans', verdana, arial, sans-serif; font-size: 12px; fill: rgb(42, 63, 95); fill-opacity: 1; white-space: pre;">HiveNAS (mean)</text><g class="layers" style="opacity: 1;"><g class="legendfill"/><g class="legendlines"><path class="js-line" d="M5,0h30" style="fill: none; stroke: rgb(230, 126, 34); stroke-opacity: 0.5; stroke-dasharray: 3px, 3px; stroke-width: 2px;"/></g><g class="legendsymbols"><g class="legendpoints"/></g></g><rect class="legendtoggle" x="0" y="-9.5" width="173.78125" height="19" style="fill: rgb(0, 0, 0); fill-opacity: 0;"/></g><g class="traces" transform="translate(0,52.5)" style="opacity: 1;"><text class="legendtext" text-anchor="start" x="40" y="4.680000000000001" style="font-family: 'Open Sans', verdana, arial, sans-serif; font-size: 12px; fill: rgb(42, 63, 95); fill-opacity: 1; white-space: pre;">HiveNAS+Aug</text><g class="layers" style="opacity: 1;"><g class="legendfill"/><g class="legendlines"><path class="js-line" d="M5,0h30" style="fill: none; stroke: rgb(52, 152, 219); stroke-opacity: 1; stroke-width: 2px;"/></g><g class="legendsymbols"><g class="legendpoints"/></g></g><rect class="legendtoggle" x="0" y="-9.5" width="173.78125" height="19" style="fill: rgb(0, 0, 0); fill-opacity: 0;"/></g><g class="traces" transform="translate(0,71.5)" style="opacity: 1;"><text class="legendtext" text-anchor="start" x="40" y="4.680000000000001" style="font-family: 'Open Sans', verdana, arial, sans-serif; font-size: 12px; fill: rgb(42, 63, 95); fill-opacity: 1; white-space: pre;">HiveNAS+Aug (mean)</text><g class="layers" style="opacity: 1;"><g class="legendfill"/><g class="legendlines"><path class="js-line" d="M5,0h30" style="fill: none; stroke: rgb(52, 152, 219); stroke-opacity: 0.5; stroke-dasharray: 3px, 3px; stroke-width: 2px;"/></g><g class="legendsymbols"><g class="legendpoints"/></g></g><rect class="legendtoggle" x="0" y="-9.5" width="173.78125" height="19" style="fill: rgb(0, 0, 0); fill-opacity: 0;"/></g></g></g><rect class="scrollbar" rx="20" ry="3" width="0" height="0" x="0" y="0" style="fill: rgb(128, 139, 164); fill-opacity: 1;"/></g><g class="g-gtitle"><text class="gtitle" x="40" y="50" text-anchor="start" dy="0em" style="font-family: 'Open Sans', verdana, arial, sans-serif; font-size: 17px; fill: rgb(42, 63, 95); opacity: 1; font-weight: normal; white-space: pre;">Validation / Training Percent Difference</text></g><g class="g-xtitle"><text class="xtitle" x="339.5" y="460.3" text-anchor="middle" style="font-family: 'Open Sans', verdana, arial, sans-serif; font-size: 14px; fill: rgb(44, 62, 80); opacity: 1; font-weight: normal; white-space: pre;">Neural Architecture Index</text></g><g class="g-ytitle"><text class="ytitle" transform="rotate(-90,16.200000000000003,260)" x="16.200000000000003" y="260" text-anchor="middle" style="font-family: 'Open Sans', verdana, arial, sans-serif; font-size: 14px; fill: rgb(44, 62, 80); opacity: 1; font-weight: normal; white-space: pre;">Generalization Improvement</text></g></g></svg>