<svg class="main-svg" xmlns="http://www.w3.org/2000/svg" xmlns:xlink="http://www.w3.org/1999/xlink" width="800" height="500" style="" viewBox="0 0 800 500"><rect x="0" y="0" width="800" height="500" style="fill: rgb(255, 255, 255); fill-opacity: 1;"/><defs id="defs-53ed3b"><g class="clips"><clipPath id="clip53ed3bxyplot" class="plotclip"><rect width="519" height="320"/></clipPath><clipPath class="axesclip" id="clip53ed3bx"><rect x="80" y="0" width="519" height="500"/></clipPath><clipPath class="axesclip" id="clip53ed3by"><rect x="0" y="100" width="800" height="320"/></clipPath><clipPath class="axesclip" id="clip53ed3bxy"><rect x="80" y="100" width="519" height="320"/></clipPath></g><g class="gradients"/><g class="patterns"/></defs><g class="bglayer"/><g class="layer-below"><g class="imagelayer"/><g class="shapelayer"/></g><g class="cartesianlayer"><g class="subplot xy"><g class="layer-subplot"><g class="shapelayer"/><g class="imagelayer"/></g><g class="minor-gridlayer"><g class="x"/><g class="y"/></g><g class="gridlayer"><g class="x"><path class="xgrid crisp" transform="translate(176.11,0)" d="M0,100v320" style="stroke: rgb(189, 195, 199); stroke-opacity: 0.75; stroke-width: 1px;"/><path class="xgrid crisp" transform="translate(272.22,0)" d="M0,100v320" style="stroke: rgb(189, 195, 199); stroke-opacity: 0.75; stroke-width: 1px;"/><path class="xgrid crisp" transform="translate(368.33,0)" d="M0,100v320" style="stroke: rgb(189, 195, 199); stroke-opacity: 0.75; stroke-width: 1px;"/><path class="xgrid crisp" transform="translate(464.44,0)" d="M0,100v320" style="stroke: rgb(189, 195, 199); stroke-opacity: 0.75; stroke-width: 1px;"/><path class="xgrid crisp" transform="translate(560.56,0)" d="M0,100v320" style="stroke: rgb(189, 195, 199); stroke-opacity: 0.75; stroke-width: 1px;"/></g><g class="y"><path class="ygrid crisp" transform="translate(0,372.52)" d="M80,0h519" style="stroke: rgb(189, 195, 199); stroke-opacity: 0.75; stroke-width: 1px;"/><path class="ygrid crisp" transform="translate(0,324.38)" d="M80,0h519" style="stroke: rgb(189, 195, 199); stroke-opacity: 0.75; stroke-width: 1px;"/><path class="ygrid crisp" transform="translate(0,276.24)" d="M80,0h519" style="stroke: rgb(189, 195, 199); stroke-opacity: 0.75; stroke-width: 1px;"/><path class="ygrid crisp" transform="translate(0,228.1)" d="M80,0h519" style="stroke: rgb(189, 195, 199); stroke-opacity: 0.75; stroke-width: 1px;"/><path class="ygrid crisp" transform="translate(0,179.97)" d="M80,0h519" style="stroke: rgb(189, 195, 199); stroke-opacity: 0.75; stroke-width: 1px;"/><path class="ygrid crisp" transform="translate(0,131.82999999999998)" d="M80,0h519" style="stroke: rgb(189, 195, 199); stroke-opacity: 0.75; stroke-width: 1px;"/></g></g><g class="zerolinelayer"><path class="xzl zl crisp" transform="translate(80,0)" d="M0,100v320" style="stroke: rgb(189, 195, 199); stroke-opacity: 1; stroke-width: 1px;"/></g><path class="xlines-below"/><path class="ylines-below"/><g class="overlines-below"/><g class="xaxislayer-below"/><g class="yaxislayer-below"/><g class="overaxes-below"/><g class="plot" transform="translate(80,100)" clip-path="url(#clip53ed3bxyplot)"><g class="scatterlayer mlayer"><g class="trace scatter tracef7ac44" style="stroke-miterlimit: 2; opacity: 1;"><g class="fills"/><g class="errorbars"/><g class="lines"><path class="js-line" d="M0,274.35L9.61,275.44L19.22,279.68L28.83,282.99L38.44,300.99L48.06,299.84L57.67,278.83L67.28,276.18L76.89,281.08L86.5,281.86L96.11,284.29L105.72,282.21L115.33,273.65L124.94,282.43L134.56,279.31L144.17,282.89L153.78,296.54L163.39,283.02L173,296.57L182.61,274.57L192.22,280.65L201.83,281.15L211.44,289.01L221.06,304L230.67,300.1L240.28,289.7L249.89,296.91L259.5,281.84L269.11,296.85L278.72,289.66L288.33,299.13L297.94,303.13L307.56,299.76L317.17,282.46L326.78,296.14L336.39,284.11L346,283.55L355.61,295.28L365.22,285.1L374.83,294.31L384.44,275.56L394.06,298.52L403.67,280L413.28,277.56L422.89,296.25L432.5,280.27L442.11,291.79L451.72,286.86L461.33,287.34L470.94,276.86L480.56,299.18L490.17,286.32L499.78,279.1L509.39,301.8L519,276.81" style="vector-effect: non-scaling-stroke; fill: none; stroke: rgb(230, 126, 34); stroke-opacity: 1; stroke-width: 2px; opacity: 1;"/></g><g class="points"/><g class="text"/></g><g class="trace scatter tracea02836" style="stroke-miterlimit: 2; opacity: 1;"><g class="fills"/><g class="errorbars"/><g class="lines"><path class="js-line" d="M0,287.16L519,287.16" style="vector-effect: non-scaling-stroke; fill: none; stroke: rgb(230, 126, 34); stroke-opacity: 0.5; stroke-width: 2px; opacity: 1; stroke-dasharray: 3px, 3px;"/></g><g class="points"/><g class="text"/></g><g class="trace scatter traceebb71a" style="stroke-miterlimit: 2; opacity: 1;"><g class="fills"/><g class="errorbars"/><g class="lines"><path class="js-line" d="M0,84.16L9.61,45.42L19.22,91.92L28.83,49.94L38.44,48.96L48.06,45.17L57.67,84.38L67.28,50.14L76.89,50.42L86.5,58.33L96.11,78.64L105.72,43.06L115.33,76.6L124.94,50.12L134.56,78.77L144.17,71.15L153.78,48.6L163.39,91.62L173,32.63L182.61,53.23L192.22,91.23L201.83,77.33L211.44,53.75L221.06,67.64L230.67,71.82L240.28,53.8L249.89,71.24L259.5,64.11L269.11,58.66L278.72,53.32L288.33,44.59L297.94,17.96L307.56,71.28L317.17,59.31L326.78,31.49L336.39,42.13L346,42.05L355.61,62.08L365.22,48.79L374.83,33.37L384.44,46.73L394.06,30.2L403.67,54.33L413.28,59.39L422.89,57.76L432.5,42.7L442.11,39.85L451.72,66.36L461.33,20.76L470.94,27.63L480.56,16L490.17,53.08L499.78,31.14L509.39,49.88L519,19.31" style="vector-effect: non-scaling-stroke; fill: none; stroke: rgb(52, 152, 219); stroke-opacity: 1; stroke-width: 2px; opacity: 1;"/></g><g class="points"/><g class="text"/></g><g class="trace scatter tracec29c35" style="stroke-miterlimit: 2; opacity: 1;"><g class="fills"/><g class="errorbars"/><g class="lines"><path class="js-line" d="M0,53.9L519,53.9" style="vector-effect: non-scaling-stroke; fill: none; stroke: rgb(52, 152, 219); stroke-opacity: 0.5; stroke-width: 2px; opacity: 1; stroke-dasharray: 3px, 3px;"/></g><g class="points"/><g class="text"/></g></g></g><g class="overplot"/><path class="xlines-above crisp" d="M0,0" style="fill: none;"/><path class="ylines-above crisp" d="M0,0" style="fill: none;"/><g class="overlines-above"/><g class="xaxislayer-above"><g class="xtick"><text text-anchor="middle" x="0" y="433" transform="translate(80,0)" style="font-family: 'Open Sans', verdana, arial, sans-serif; font-size: 12px; fill: rgb(44, 62, 80); fill-opacity: 1; white-space: pre; opacity: 1;">0</text></g><g class="xtick"><text text-anchor="middle" x="0" y="433" style="font-family: 'Open Sans', verdana, arial, sans-serif; font-size: 12px; fill: rgb(44, 62, 80); fill-opacity: 1; white-space: pre; opacity: 1;" transform="translate(176.11,0)">10</text></g><g class="xtick"><text text-anchor="middle" x="0" y="433" style="font-family: 'Open Sans', verdana, arial, sans-serif; font-size: 12px; fill: rgb(44, 62, 80); fill-opacity: 1; white-space: pre; opacity: 1;" transform="translate(272.22,0)">20</text></g><g class="xtick"><text text-anchor="middle" x="0" y="433" style="font-family: 'Open Sans', verdana, arial, sans-serif; font-size: 12px; fill: rgb(44, 62, 80); fill-opacity: 1; white-space: pre; opacity: 1;" transform="translate(368.33,0)">30</text></g><g class="xtick"><text text-anchor="middle" x="0" y="433" style="font-family: 'Open Sans', verdana, arial, sans-serif; font-size: 12px; fill: rgb(44, 62, 80); fill-opacity: 1; white-space: pre; opacity: 1;" transform="translate(464.44,0)">40</text></g><g class="xtick"><text text-anchor="middle" x="0" y="433" style="font-family: 'Open Sans', verdana, arial, sans-serif; font-size: 12px; fill: rgb(44, 62, 80); fill-opacity: 1; white-space: pre; opacity: 1;" transform="translate(560.56,0)">50</text></g></g><g class="yaxislayer-above"><g class="ytick"><text text-anchor="end" x="79" y="4.199999999999999" transform="translate(0,372.52)" style="font-family: 'Open Sans', verdana, arial, sans-serif; font-size: 12px; fill: rgb(44, 62, 80); fill-opacity: 1; white-space: pre; opacity: 1;">100</text></g><g class="ytick"><text text-anchor="end" x="79" y="4.199999999999999" style="font-family: 'Open Sans', verdana, arial, sans-serif; font-size: 12px; fill: rgb(44, 62, 80); fill-opacity: 1; white-space: pre; opacity: 1;" transform="translate(0,324.38)">200</text></g><g class="ytick"><text text-anchor="end" x="79" y="4.199999999999999" style="font-family: 'Open Sans', verdana, arial, sans-serif; font-size: 12px; fill: rgb(44, 62, 80); fill-opacity: 1; white-space: pre; opacity: 1;" transform="translate(0,276.24)">300</text></g><g class="ytick"><text text-anchor="end" x="79" y="4.199999999999999" style="font-family: 'Open Sans', verdana, arial, sans-serif; font-size: 12px; fill: rgb(44, 62, 80); fill-opacity: 1; white-space: pre; opacity: 1;" transform="translate(0,228.1)">400</text></g><g class="ytick"><text text-anchor="end" x="79" y="4.199999999999999" style="font-family: 'Open Sans', verdana, arial, sans-serif; font-size: 12px; fill: rgb(44, 62, 80); fill-opacity: 1; white-space: pre; opacity: 1;" transform="translate(0,179.97)">500</text></g><g class="ytick"><text text-anchor="end" x="79" y="4.199999999999999" style="font-family: 'Open Sans', verdana, arial, sans-serif; font-size: 12px; fill: rgb(44, 62, 80); fill-opacity: 1; white-space: pre; opacity: 1;" transform="translate(0,131.82999999999998)">600</text></g></g><g class="overaxes-above"/></g></g><g class="polarlayer"/><g class="smithlayer"/><g class="ternarylayer"/><g class="geolayer"/><g class="funnelarealayer"/><g class="pielayer"/><g class="iciclelayer"/><g class="treemaplayer"/><g class="sunburstlayer"/><g class="glimages"/><defs id="topdefs-53ed3b"><g class="clips"/><clipPath id="legend53ed3b"><rect width="179" height="86" x="0" y="0"/></clipPath></defs><g class="layer-above"><g class="imagelayer"/><g class="shapelayer"/></g><g class="infolayer"><g class="legend" pointer-events="all" transform="translate(609.38,100)"><rect class="bg" shape-rendering="crispEdges" width="179" height="86" x="0" y="0" style="stroke: rgb(68, 68, 68); stroke-opacity: 1; fill: rgb(255, 255, 255); fill-opacity: 1; stroke-width: 0px;"/><g class="scrollbox" transform="" clip-path="url(#legend53ed3b)"><g class="groups"><g class="traces" transform="translate(0,14.5)" style="opacity: 1;"><text class="legendtext" text-anchor="start" x="40" y="4.680000000000001" style="font-family: 'Open Sans', verdana, arial, sans-serif; font-size: 12px; fill: rgb(42, 63, 95); fill-opacity: 1; white-space: pre;">HiveNAS</text><g class="layers" style="opacity: 1;"><g class="legendfill"/><g class="legendlines"><path class="js-line" d="M5,0h30" style="fill: none; stroke: rgb(230, 126, 34); stroke-opacity: 1; stroke-width: 2px;"/></g><g class="legendsymbols"><g class="legendpoints"/></g></g><rect class="legendtoggle" x="0" y="-9.5" width="173.78125" height="19" style="fill: rgb(0, 0, 0); fill-opacity: 0;"/></g><g class="traces" transform="translate(0,33.5)" style="opacity: 1;"><text class="legendtext" text-anchor="start" x="40" y="4.680000000000001" style="font-family: 'Open Sans', verdana, arial, sans-serif; font-size: 12px; fill: rgb(42, 63, 95); fill-opacity: 1; white-space: pre;">HiveNAS (mean)</text><g class="layers" style="opacity: 1;"><g class="legendfill"/><g class="legendlines"><path class="js-line" d="M5,0h30" style="fill: none; stroke: rgb(230, 126, 34); stroke-opacity: 0.5; stroke-dasharray: 3px, 3px; stroke-width: 2px;"/></g><g class="legendsymbols"><g class="legendpoints"/></g></g><rect class="legendtoggle" x="0" y="-9.5" width="173.78125" height="19" style="fill: rgb(0, 0, 0); fill-opacity: 0;"/></g><g class="traces" transform="translate(0,52.5)" style="opacity: 1;"><text class="legendtext" text-anchor="start" x="40" y="4.680000000000001" style="font-family: 'Open Sans', verdana, arial, sans-serif; font-size: 12px; fill: rgb(42, 63, 95); fill-opacity: 1; white-space: pre;">HiveNAS+Aug</text><g class="layers" style="opacity: 1;"><g class="legendfill"/><g class="legendlines"><path class="js-line" d="M5,0h30" style="fill: none; stroke: rgb(52, 152, 219); stroke-opacity: 1; stroke-width: 2px;"/></g><g class="legendsymbols"><g class="legendpoints"/></g></g><rect class="legendtoggle" x="0" y="-9.5" width="173.78125" height="19" style="fill: rgb(0, 0, 0); fill-opacity: 0;"/></g><g class="traces" transform="translate(0,71.5)" style="opacity: 1;"><text class="legendtext" text-anchor="start" x="40" y="4.680000000000001" style="font-family: 'Open Sans', verdana, arial, sans-serif; font-size: 12px; fill: rgb(42, 63, 95); fill-opacity: 1; white-space: pre;">HiveNAS+Aug (mean)</text><g class="layers" style="opacity: 1;"><g class="legendfill"/><g class="legendlines"><path class="js-line" d="M5,0h30" style="fill: none; stroke: rgb(52, 152, 219); stroke-opacity: 0.5; stroke-dasharray: 3px, 3px; stroke-width: 2px;"/></g><g class="legendsymbols"><g class="legendpoints"/></g></g><rect class="legendtoggle" x="0" y="-9.5" width="173.78125" height="19" style="fill: rgb(0, 0, 0); fill-opacity: 0;"/></g></g></g><rect class="scrollbar" rx="20" ry="3" width="0" height="0" x="0" y="0" style="fill: rgb(128, 139, 164); fill-opacity: 1;"/></g><g class="g-gtitle"><text class="gtitle" x="40" y="50" text-anchor="start" dy="0em" style="font-family: 'Open Sans', verdana, arial, sans-serif; font-size: 17px; fill: rgb(42, 63, 95); opacity: 1; font-weight: normal; white-space: pre;">Augmentation Performance Impact</text></g><g class="g-xtitle"><text class="xtitle" x="339.5" y="460.3" text-anchor="middle" style="font-family: 'Open Sans', verdana, arial, sans-serif; font-size: 14px; fill: rgb(44, 62, 80); opacity: 1; font-weight: normal; white-space: pre;">Neural Architecture Index</text></g><g class="g-ytitle"><text class="ytitle" transform="rotate(-90,31.309375000000003,260)" x="31.309375000000003" y="260" text-anchor="middle" style="font-family: 'Open Sans', verdana, arial, sans-serif; font-size: 14px; fill: rgb(44, 62, 80); opacity: 1; font-weight: normal; white-space: pre;">Processing Time (s)</text></g></g></svg>