<svg class="main-svg" xmlns="http://www.w3.org/2000/svg" xmlns:xlink="http://www.w3.org/1999/xlink" width="800" height="500" style="" viewBox="0 0 800 500"><rect x="0" y="0" width="800" height="500" style="fill: rgb(255, 255, 255); fill-opacity: 1;"/><defs id="defs-39c5b5"><g class="clips"><clipPath id="clip39c5b5xyplot" class="plotclip"><rect width="519" height="320"/></clipPath><clipPath class="axesclip" id="clip39c5b5x"><rect x="80" y="0" width="519" height="500"/></clipPath><clipPath class="axesclip" id="clip39c5b5y"><rect x="0" y="100" width="800" height="320"/></clipPath><clipPath class="axesclip" id="clip39c5b5xy"><rect x="80" y="100" width="519" height="320"/></clipPath></g><g class="gradients"/><g class="patterns"/></defs><g class="bglayer"/><g class="layer-below"><g class="imagelayer"/><g class="shapelayer"/></g><g class="cartesianlayer"><g class="subplot xy"><g class="layer-subplot"><g class="shapelayer"/><g class="imagelayer"/></g><g class="minor-gridlayer"><g class="x"/><g class="y"/></g><g class="gridlayer"><g class="x"><path class="xgrid crisp" transform="translate(188.13,0)" d="M0,100v320" style="stroke: rgb(189, 195, 199); stroke-opacity: 0.75; stroke-width: 1px;"/><path class="xgrid crisp" transform="translate(296.25,0)" d="M0,100v320" style="stroke: rgb(189, 195, 199); stroke-opacity: 0.75; stroke-width: 1px;"/><path class="xgrid crisp" transform="translate(404.38,0)" d="M0,100v320" style="stroke: rgb(189, 195, 199); stroke-opacity: 0.75; stroke-width: 1px;"/><path class="xgrid crisp" transform="translate(512.5,0)" d="M0,100v320" style="stroke: rgb(189, 195, 199); stroke-opacity: 0.75; stroke-width: 1px;"/></g><g class="y"><path class="ygrid crisp" transform="translate(0,406.86)" d="M80,0h519" style="stroke: rgb(189, 195, 199); stroke-opacity: 0.75; stroke-width: 1px;"/><path class="ygrid crisp" transform="translate(0,365.51)" d="M80,0h519" style="stroke: rgb(189, 195, 199); stroke-opacity: 0.75; stroke-width: 1px;"/><path class="ygrid crisp" transform="translate(0,324.15)" d="M80,0h519" style="stroke: rgb(189, 195, 199); stroke-opacity: 0.75; stroke-width: 1px;"/><path class="ygrid crisp" transform="translate(0,282.8)" d="M80,0h519" style="stroke: rgb(189, 195, 199); stroke-opacity: 0.75; stroke-width: 1px;"/><path class="ygrid crisp" transform="translate(0,241.44)" d="M80,0h519" style="stroke: rgb(189, 195, 199); stroke-opacity: 0.75; stroke-width: 1px;"/><path class="ygrid crisp" transform="translate(0,200.09)" d="M80,0h519" style="stroke: rgb(189, 195, 199); stroke-opacity: 0.75; stroke-width: 1px;"/><path class="ygrid crisp" transform="translate(0,158.74)" d="M80,0h519" style="stroke: rgb(189, 195, 199); stroke-opacity: 0.75; stroke-width: 1px;"/><path class="ygrid crisp" transform="translate(0,117.38)" d="M80,0h519" style="stroke: rgb(189, 195, 199); stroke-opacity: 0.75; stroke-width: 1px;"/></g></g><g class="zerolinelayer"><path class="xzl zl crisp" transform="translate(80,0)" d="M0,100v320" style="stroke: rgb(189, 195, 199); stroke-opacity: 1; stroke-width: 1px;"/></g><path class="xlines-below"/><path class="ylines-below"/><g class="overlines-below"/><g class="xaxislayer-below"/><g class="yaxislayer-below"/><g class="overaxes-below"/><g class="plot" transform="translate(80,100)" clip-path="url(#clip39c5b5xyplot)"><g class="scatterlayer mlayer"><g class="trace scatter trace52a33e" style="stroke-miterlimit: 2; opacity: 1;"><g class="fills"/><g class="errorbars"/><g class="lines"><path class="js-line" d="M0,149.26L10.81,224.56L21.63,143.98L32.44,141.61L43.25,144.1L54.06,236.92L64.88,292.79L75.69,192.22L86.5,288.18L97.31,141.42L108.13,143.17L118.94,304L129.75,131.52L140.56,121.7L151.38,281.1L162.19,201.02L173,100.51L183.81,209.16L194.63,132.83L205.44,260.52L216.25,172.64L227.06,159.66L237.88,128.25L248.69,215.72L259.5,163.63L270.31,160.3L281.13,82.51L291.94,143.75L302.75,119.61L313.56,231.73L324.38,175.5L335.19,193L346,133.05L356.81,300.53L367.63,219.5L378.44,158.08L389.25,88.49L400.06,257.08L410.88,300.44L421.69,259.62L432.5,154.74L443.31,228.93L454.13,232.06L464.94,148.53L475.75,258.29L486.56,99.83L497.38,168.42L508.19,118.31L519,179.73" style="vector-effect: non-scaling-stroke; fill: none; stroke: rgb(230, 126, 34); stroke-opacity: 1; stroke-width: 2px; opacity: 1;"/></g><g class="points"/><g class="text"/></g><g class="trace scatter tracef61a9e" style="stroke-miterlimit: 2; opacity: 1;"><g class="fills"/><g class="errorbars"/><g class="lines"><path class="js-line" d="M0,185.56L519,185.56" style="vector-effect: non-scaling-stroke; fill: none; stroke: rgb(230, 126, 34); stroke-opacity: 0.5; stroke-width: 2px; opacity: 1; stroke-dasharray: 3px, 3px;"/></g><g class="points"/><g class="text"/></g><g class="trace scatter trace10e5a7" style="stroke-miterlimit: 2; opacity: 1;"><g class="fills"/><g class="errorbars"/><g class="lines"><path class="js-line" d="M0,210.65L10.81,208.33L21.63,146.89L32.44,202.93L43.25,173.42L54.06,16L64.88,148.32L75.69,199.44L86.5,138.32L97.31,18.36L108.13,75.06L118.94,179.21L129.75,160.86L140.56,80.4L151.38,129.53L162.19,168.27L173,236.67L183.81,126.05L194.63,165.73L205.44,142.43L216.25,163.95L227.06,132.81L237.88,126.55L248.69,169L259.5,134.55L270.31,148.22L281.13,154.74L291.94,138.9L302.75,157.99L313.56,137.45L324.38,170.93L335.19,155.67L346,132.46L356.81,140.4L367.63,150.59L378.44,163.48L389.25,173.28L400.06,150.38L410.88,181.71L421.69,154.96L432.5,141.37L443.31,140.09L454.13,154.73L464.94,162.25L475.75,194.25L486.56,163.17L497.38,141.47L508.19,87.09L519,140.05" style="vector-effect: non-scaling-stroke; fill: none; stroke: rgb(52, 152, 219); stroke-opacity: 1; stroke-width: 2px; opacity: 1;"/></g><g class="points"/><g class="text"/></g><g class="trace scatter tracead9a9a" style="stroke-miterlimit: 2; opacity: 1;"><g class="fills"/><g class="errorbars"/><g class="lines"><path class="js-line" d="M0,148.76L519,148.76" style="vector-effect: non-scaling-stroke; fill: none; stroke: rgb(52, 152, 219); stroke-opacity: 0.5; stroke-width: 2px; opacity: 1; stroke-dasharray: 3px, 3px;"/></g><g class="points"/><g class="text"/></g></g></g><g class="overplot"/><path class="xlines-above crisp" d="M0,0" style="fill: none;"/><path class="ylines-above crisp" d="M0,0" style="fill: none;"/><g class="overlines-above"/><g class="xaxislayer-above"><g class="xtick"><text text-anchor="middle" x="0" y="433" transform="translate(80,0)" style="font-family: 'Open Sans', verdana, arial, sans-serif; font-size: 12px; fill: rgb(44, 62, 80); fill-opacity: 1; white-space: pre; opacity: 1;">0</text></g><g class="xtick"><text text-anchor="middle" x="0" y="433" style="font-family: 'Open Sans', verdana, arial, sans-serif; font-size: 12px; fill: rgb(44, 62, 80); fill-opacity: 1; white-space: pre; opacity: 1;" transform="translate(188.13,0)">10</text></g><g class="xtick"><text text-anchor="middle" x="0" y="433" style="font-family: 'Open Sans', verdana, arial, sans-serif; font-size: 12px; fill: rgb(44, 62, 80); fill-opacity: 1; white-space: pre; opacity: 1;" transform="translate(296.25,0)">20</text></g><g class="xtick"><text text-anchor="middle" x="0" y="433" style="font-family: 'Open Sans', verdana, arial, sans-serif; font-size: 12px; fill: rgb(44, 62, 80); fill-opacity: 1; white-space: pre; opacity: 1;" transform="translate(404.38,0)">30</text></g><g class="xtick"><text text-anchor="middle" x="0" y="433" style="font-family: 'Open Sans', verdana, arial, sans-serif; font-size: 12px; fill: rgb(44, 62, 80); fill-opacity: 1; white-space: pre; opacity: 1;" transform="translate(512.5,0)">40</text></g></g><g class="yaxislayer-above"><g class="ytick"><text text-anchor="end" x="79" y="4.199999999999999" transform="translate(0,406.86)" style="font-family: 'Open Sans', verdana, arial, sans-serif; font-size: 12px; fill: rgb(44, 62, 80); fill-opacity: 1; white-space: pre; opacity: 1;">0.02</text></g><g class="ytick"><text text-anchor="end" x="79" y="4.199999999999999" style="font-family: 'Open Sans', verdana, arial, sans-serif; font-size: 12px; fill: rgb(44, 62, 80); fill-opacity: 1; white-space: pre; opacity: 1;" transform="translate(0,365.51)">0.04</text></g><g class="ytick"><text text-anchor="end" x="79" y="4.199999999999999" style="font-family: 'Open Sans', verdana, arial, sans-serif; font-size: 12px; fill: rgb(44, 62, 80); fill-opacity: 1; white-space: pre; opacity: 1;" transform="translate(0,324.15)">0.06</text></g><g class="ytick"><text text-anchor="end" x="79" y="4.199999999999999" style="font-family: 'Open Sans', verdana, arial, sans-serif; font-size: 12px; fill: rgb(44, 62, 80); fill-opacity: 1; white-space: pre; opacity: 1;" transform="translate(0,282.8)">0.08</text></g><g class="ytick"><text text-anchor="end" x="79" y="4.199999999999999" style="font-family: 'Open Sans', verdana, arial, sans-serif; font-size: 12px; fill: rgb(44, 62, 80); fill-opacity: 1; white-space: pre; opacity: 1;" transform="translate(0,241.44)">0.1</text></g><g class="ytick"><text text-anchor="end" x="79" y="4.199999999999999" style="font-family: 'Open Sans', verdana, arial, sans-serif; font-size: 12px; fill: rgb(44, 62, 80); fill-opacity: 1; white-space: pre; opacity: 1;" transform="translate(0,200.09)">0.12</text></g><g class="ytick"><text text-anchor="end" x="79" y="4.199999999999999" style="font-family: 'Open Sans', verdana, arial, sans-serif; font-size: 12px; fill: rgb(44, 62, 80); fill-opacity: 1; white-space: pre; opacity: 1;" transform="translate(0,158.74)">0.14</text></g><g class="ytick"><text text-anchor="end" x="79" y="4.199999999999999" style="font-family: 'Open Sans', verdana, arial, sans-serif; font-size: 12px; fill: rgb(44, 62, 80); fill-opacity: 1; white-space: pre; opacity: 1;" transform="translate(0,117.38)">0.16</text></g></g><g class="overaxes-above"/></g></g><g class="polarlayer"/><g class="smithlayer"/><g class="ternarylayer"/><g class="geolayer"/><g class="funnelarealayer"/><g class="pielayer"/><g class="iciclelayer"/><g class="treemaplayer"/><g class="sunburstlayer"/><g class="glimages"/><defs id="topdefs-39c5b5"><g class="clips"/><clipPath id="legend39c5b5"><rect width="179" height="86" x="0" y="0"/></clipPath></defs><g class="layer-above"><g class="imagelayer"/><g class="shapelayer"/></g><g class="infolayer"><g class="legend" pointer-events="all" transform="translate(609.38,100)"><rect class="bg" shape-rendering="crispEdges" width="179" height="86" x="0" y="0" style="stroke: rgb(68, 68, 68); stroke-opacity: 1; fill: rgb(255, 255, 255); fill-opacity: 1; stroke-width: 0px;"/><g class="scrollbox" transform="" clip-path="url(#legend39c5b5)"><g class="groups"><g class="traces" transform="translate(0,14.5)" style="opacity: 1;"><text class="legendtext" text-anchor="start" x="40" y="4.680000000000001" style="font-family: 'Open Sans', verdana, arial, sans-serif; font-size: 12px; fill: rgb(42, 63, 95); fill-opacity: 1; white-space: pre;">HiveNAS</text><g class="layers" style="opacity: 1;"><g class="legendfill"/><g class="legendlines"><path class="js-line" d="M5,0h30" style="fill: none; stroke: rgb(230, 126, 34); stroke-opacity: 1; stroke-width: 2px;"/></g><g class="legendsymbols"><g class="legendpoints"/></g></g><rect class="legendtoggle" x="0" y="-9.5" width="173.78125" height="19" style="fill: rgb(0, 0, 0); fill-opacity: 0;"/></g><g class="traces" transform="translate(0,33.5)" style="opacity: 1;"><text class="legendtext" text-anchor="start" x="40" y="4.680000000000001" style="font-family: 'Open Sans', verdana, arial, sans-serif; font-size: 12px; fill: rgb(42, 63, 95); fill-opacity: 1; white-space: pre;">HiveNAS (mean)</text><g class="layers" style="opacity: 1;"><g class="legendfill"/><g class="legendlines"><path class="js-line" d="M5,0h30" style="fill: none; stroke: rgb(230, 126, 34); stroke-opacity: 0.5; stroke-dasharray: 3px, 3px; stroke-width: 2px;"/></g><g class="legendsymbols"><g class="legendpoints"/></g></g><rect class="legendtoggle" x="0" y="-9.5" width="173.78125" height="19" style="fill: rgb(0, 0, 0); fill-opacity: 0;"/></g><g class="traces" transform="translate(0,52.5)" style="opacity: 1;"><text class="legendtext" text-anchor="start" x="40" y="4.680000000000001" style="font-family: 'Open Sans', verdana, arial, sans-serif; font-size: 12px; fill: rgb(42, 63, 95); fill-opacity: 1; white-space: pre;">HiveNAS+Aug</text><g class="layers" style="opacity: 1;"><g class="legendfill"/><g class="legendlines"><path class="js-line" d="M5,0h30" style="fill: none; stroke: rgb(52, 152, 219); stroke-opacity: 1; stroke-width: 2px;"/></g><g class="legendsymbols"><g class="legendpoints"/></g></g><rect class="legendtoggle" x="0" y="-9.5" width="173.78125" height="19" style="fill: rgb(0, 0, 0); fill-opacity: 0;"/></g><g class="traces" transform="translate(0,71.5)" style="opacity: 1;"><text class="legendtext" text-anchor="start" x="40" y="4.680000000000001" style="font-family: 'Open Sans', verdana, arial, sans-serif; font-size: 12px; fill: rgb(42, 63, 95); fill-opacity: 1; white-space: pre;">HiveNAS+Aug (mean)</text><g class="layers" style="opacity: 1;"><g class="legendfill"/><g class="legendlines"><path class="js-line" d="M5,0h30" style="fill: none; stroke: rgb(52, 152, 219); stroke-opacity: 0.5; stroke-dasharray: 3px, 3px; stroke-width: 2px;"/></g><g class="legendsymbols"><g class="legendpoints"/></g></g><rect class="legendtoggle" x="0" y="-9.5" width="173.78125" height="19" style="fill: rgb(0, 0, 0); fill-opacity: 0;"/></g></g></g><rect class="scrollbar" rx="20" ry="3" width="0" height="0" x="0" y="0" style="fill: rgb(128, 139, 164); fill-opacity: 1;"/></g><g class="g-gtitle"><text class="gtitle" x="40" y="50" text-anchor="start" dy="0em" style="font-family: 'Open Sans', verdana, arial, sans-serif; font-size: 17px; fill: rgb(42, 63, 95); opacity: 1; font-weight: normal; white-space: pre;">Convergence Profile</text></g><g class="g-xtitle"><text class="xtitle" x="339.5" y="460.3" text-anchor="middle" style="font-family: 'Open Sans', verdana, arial, sans-serif; font-size: 14px; fill: rgb(44, 62, 80); opacity: 1; font-weight: normal; white-space: pre;">Neural Architecture Index</text></g><g class="g-ytitle"><text class="ytitle" transform="rotate(-90,26.934375000000003,260)" x="26.934375000000003" y="260" text-anchor="middle" style="font-family: 'Open Sans', verdana, arial, sans-serif; font-size: 14px; fill: rgb(44, 62, 80); opacity: 1; font-weight: normal; white-space: pre;">Mean Loss Rate of Change</text></g></g></svg>