<?xml version="1.0" encoding="utf-8"?>
<!-- Generator: Adobe Illustrator 25.2.1, SVG Export Plug-In . SVG Version: 6.00 Build 0)  -->
<svg version="1.1" id="Layer_1" xmlns="http://www.w3.org/2000/svg" xmlns:xlink="http://www.w3.org/1999/xlink" x="0px" y="0px"
	 viewBox="0 0 429 137" style="enable-background:new 0 0 429 137;" xml:space="preserve">
<style type="text/css">
	.st0{fill:#34322E;}
	.st1{fill:#EC8B2D;}
	.st2{fill:#EB8D33;}
	.st3{font-family:'Montserrat-Light';}
	.st4{font-size:61.5539px;}
</style>
<g id="cweo3l.tif">
	<path class="st0" d="M74.7,80l-9.3,1c-0.9,0.1-1.8-0.3-2.4-1.1l-5.5-7.5c-0.6-0.8-0.7-1.7-0.3-2.6l3.8-8.6c0.4-0.9,1.2-1.4,2.1-1.5
		l9.3-1c0.9-0.1,1.8,0.3,2.4,1.1l5.5,7.6c0.6,0.8,0.7,1.7,0.3,2.6l-3.8,8.5C76.5,79.3,75.6,79.9,74.7,80z"/>
</g>
<g>
	<g>
		<path class="st1" d="M49.1,102.8c-3.2,1-6.7,0.8-10.1,0.8c0-9,0-18,0-27.1c3.5-0.2,6.9-0.3,10.3,0.8
			C49.2,85.8,49.2,94.3,49.1,102.8z"/>
		<path class="st0" d="M39,76.5c0,9,0,18,0,27.1c-3.5-0.1-5.9,0.3-10.2-1.1c0.1-8.4,0.1-16.8,0.2-25.2C34.3,76,35.6,76.3,39,76.5z"
			/>
		<path class="st0" d="M49.1,102.8c0.1-8.5,0.1-17,0.2-25.4c4.2,3.1,6.4,7.9,9.9,11.9c0.2,0.2,0.2,0.6,0,0.9
			C56.1,94.7,53.4,99.3,49.1,102.8z"/>
		<path class="st2" d="M29,77.3c-0.1,8.4-0.2,16.8-0.2,25.2c-3.7-2.5-6-6.1-8-9.8c-1.6-3.2-1.8-2.2,0-5.3C22.9,83.7,25,79.7,29,77.3
			z"/>
	</g>
	<g>
		<path class="st1" d="M88.8,103c-0.7,3.3-2.6,6.3-4.2,9.2c-7.9-4.4-15.7-8.8-23.6-13.2c1.5-3.2,3.1-6.2,5.8-8.6
			C74.1,94.6,81.5,98.8,88.8,103z"/>
		<path class="st0" d="M61,99c7.9,4.4,15.7,8.8,23.6,13.2c-1.7,3-2.6,5.3-5.9,8.4c-7.3-4.2-14.6-8.3-21.9-12.5
			C58.2,102.8,59.1,101.8,61,99z"/>
		<path class="st0" d="M88.8,103c-7.4-4.2-14.7-8.4-22.1-12.6c4.8-2.2,10-1.7,15.2-2.8c0.3-0.1,0.6,0.1,0.8,0.4
			C85.2,92.9,88,97.5,88.8,103z"/>
		<path class="st2" d="M56.8,108.1c7.3,4.2,14.6,8.3,21.9,12.5c-3.9,2-8.2,2.3-12.5,2.2c-3.6-0.1-2.8,0.5-4.6-2.5
			C59.4,116.5,56.9,112.7,56.8,108.1z"/>
	</g>
	<g>
		<path class="st1" d="M108.7,70.1c2.5,2.3,4.1,5.4,5.7,8.4c-7.8,4.5-15.6,9-23.5,13.5c-1.9-2.9-3.7-5.8-4.4-9.4
			C93.9,78.4,101.3,74.2,108.7,70.1z"/>
		<path class="st0" d="M91,91.9c7.8-4.5,15.6-9,23.5-13.5c1.7,3,3.2,4.9,4.2,9.4c-7.3,4.1-14.6,8.3-22,12.4
			C92.8,96.2,92.4,95,91,91.9z"/>
		<path class="st0" d="M108.7,70.1c-7.4,4.2-14.8,8.3-22.1,12.5c0.6-5.2,3.7-9.4,5.4-14.5c0.1-0.3,0.4-0.5,0.7-0.5
			C98.2,68.1,103.6,68,108.7,70.1z"/>
		<path class="st2" d="M96.6,100.2c7.3-4.1,14.6-8.3,22-12.4c-0.3,4.4-2.2,8.3-4.5,11.8c-1.9,3-1,2.6-4.5,2.6
			C105.2,102.3,100.7,102.5,96.6,100.2z"/>
	</g>
	<g>
		<path class="st1" d="M90.7,35.5c3.2-1,6.7-0.8,10.1-0.8c0,9,0,18,0,27.1c-3.5,0.2-6.9,0.3-10.3-0.8C90.5,52.4,90.6,43.9,90.7,35.5
			z"/>
		<path class="st0" d="M100.8,61.7c0-9,0-18,0-27.1c3.4,0,5.8-0.3,10.2,1.1c-0.1,8.4-0.2,16.8-0.2,25.2
			C105.4,62.3,104.1,62,100.8,61.7z"/>
		<path class="st0" d="M90.7,35.5c-0.1,8.5-0.1,17-0.2,25.4c-4.2-3.1-6.4-7.9-9.8-12c-0.2-0.2-0.2-0.6,0-0.9
			C83.7,43.6,86.3,38.9,90.7,35.5z"/>
		<path class="st2" d="M110.8,61c0.1-8.4,0.2-16.8,0.2-25.2c3.7,2.5,6,6.1,8,9.8c1.6,3.2,1.8,2.2,0,5.3
			C116.8,54.6,114.7,58.6,110.8,61z"/>
	</g>
	<g>
		<path class="st1" d="M50.9,34c0.7-3.3,2.6-6.2,4.4-9.2c7.8,4.5,15.6,9,23.4,13.6c-1.6,3.1-3.2,6.1-5.9,8.5
			C65.5,42.6,58.2,38.3,50.9,34z"/>
		<path class="st0" d="M78.7,38.4c-7.8-4.5-15.6-9-23.4-13.6c1.8-3,2.6-5.2,6-8.3C68.5,20.8,75.8,25,83,29.3
			C81.5,34.7,80.6,35.6,78.7,38.4z"/>
		<path class="st0" d="M50.9,34c7.3,4.3,14.6,8.6,21.9,12.9c-4.8,2.1-10,1.6-15.3,2.6c-0.3,0.1-0.6-0.1-0.8-0.4
			C54.4,44.1,51.7,39.5,50.9,34z"/>
		<path class="st2" d="M83,29.4c-7.2-4.3-14.5-8.6-21.7-12.9c4-1.9,8.3-2.2,12.5-2c3.6,0.2,2.8-0.4,4.6,2.6
			C80.5,20.9,83,24.7,83,29.4z"/>
	</g>
	<g>
		<path class="st1" d="M30,68.2c-2.5-2.3-4.1-5.4-5.7-8.4c7.8-4.5,15.6-9,23.5-13.5c1.9,2.9,3.7,5.8,4.4,9.4
			C44.8,59.8,37.4,64,30,68.2z"/>
		<path class="st0" d="M47.8,46.3c-7.8,4.5-15.6,9-23.5,13.5c-1.7-3-3.2-4.9-4.2-9.4c7.3-4.1,14.6-8.3,22-12.4
			C45.9,42,46.3,43.3,47.8,46.3z"/>
		<path class="st0" d="M30,68.2c7.4-4.2,14.8-8.3,22.1-12.5c-0.6,5.2-3.7,9.4-5.4,14.5c-0.1,0.3-0.4,0.5-0.7,0.5
			C40.6,70.2,35.2,70.2,30,68.2z"/>
		<path class="st1" d="M42.1,38c-7.3,4.1-14.6,8.3-22,12.4c0.3-4.4,2.2-8.3,4.5-11.8c1.9-3,1-2.6,4.5-2.6C33.6,36,38.1,35.8,42.1,38
			z"/>
	</g>
</g>
<text transform="matrix(1 0 0 1 137.8899 99.3588)" class="st0 st3 st4">HiveNAS</text>
<polygon class="st1" points="193.1,55.5 193.1,59.1 196.3,60.9 199.4,59.1 199.4,55.5 196.3,53.7 "/>
<g>
	<path class="st0" d="M196.3,62.6l-4.6-2.7v-5.3l4.6-2.7l4.6,2.7v5.3L196.3,62.6z M192.1,59.7l4.1,2.4l4.1-2.4V55l-4.1-2.4l-4.1,2.4
		V59.7z"/>
</g>
</svg>
